  0
SECTION
  2
HEADER
  9
$ACADVER
  1
AC1014
  9
$HANDSEED
  5
FFFF
  9
$MEASUREMENT
 70
     1
  0
ENDSEC
  0
SECTION
  2
TABLES
  0
TABLE
  2
VPORT
  5
8
330
0
100
AcDbSymbolTable
 70
     4
  0
VPORT
  5
2E
330
8
100
AcDbSymbolTableRecord
100
AcDbViewportTableRecord
  2
*ACTIVE
 70
     0
 10
0.0
 20
0.0
 11
1.0
 21
1.0
 12
210.0
 22
148.5
 13
0.0
 23
0.0
 14
10.0
 24
10.0
 15
10.0
 25
10.0
 16
0.0
 26
0.0
 36
1.0
 17
0.0
 27
0.0
 37
0.0
 40
341.0
 41
1.24
 42
50.0
 43
0.0
 44
0.0
 50
0.0
 51
0.0
 71
     0
 72
   100
 73
     1
 74
     3
 75
     0
 76
     0
 77
     0
 78
     0
  0
ENDTAB
  0
TABLE
  2
LTYPE
  5
5
330
0
100
AcDbSymbolTable
 70
     1
  0
LTYPE
  5
14
330
5
100
AcDbSymbolTableRecord
100
AcDbLinetypeTableRecord
  2
BYBLOCK
 70
     0
  3

 72
    65
 73
     0
 40
0.0
  0
LTYPE
  5
15
330
5
100
AcDbSymbolTableRecord
100
AcDbLinetypeTableRecord
  2
BYLAYER
 70
     0
  3

 72
    65
 73
     0
 40
0.0
  0
LTYPE
  5
16
330
5
100
AcDbSymbolTableRecord
100
AcDbLinetypeTableRecord
  2
CONTINUOUS
 70
     0
  3
Solid line
 72
    65
 73
     0
 40
0.0
  0
ENDTAB
  0
TABLE
  2
LAYER
  5
2
100
AcDbSymbolTable
 70
1
  0
LAYER
  5
50
100
AcDbSymbolTableRecord
100
AcDbLayerTableRecord
  2
0
 70
0
  6
CONTINUOUS
  0
ENDTAB
  0
TABLE
  2
STYLE
  5
3
330
0
100
AcDbSymbolTable
 70
     1
  0
STYLE
  5
11
330
3
100
AcDbSymbolTableRecord
100
AcDbTextStyleTableRecord
  2
STANDARD
 70
     0
 40
0.0
 41
1.0
 50
0.0
 71
     0
 42
2.5
  3
txt
  4

  0
ENDTAB
  0
TABLE
  2
VIEW
  5
6
330
0
100
AcDbSymbolTable
 70
     0
  0
ENDTAB
  0
TABLE
  2
UCS
  5
7
330
0
100
AcDbSymbolTable
 70
     0
  0
ENDTAB
  0
TABLE
  2
APPID
  5
9
330
0
100
AcDbSymbolTable
 70
     2
  0
APPID
  5
12
330
9
100
AcDbSymbolTableRecord
100
AcDbRegAppTableRecord
  2
ACAD
 70
     0
  0
ENDTAB
  0
TABLE
  2
DIMSTYLE
  5
A
330
0
100
AcDbSymbolTable
 70
     1
  0
DIMSTYLE
105
27
330
A
100
AcDbSymbolTableRecord
100
AcDbDimStyleTableRecord
  2
ISO-25
 70
     0
  3

  4

  5

  6

  7

 40
1.0
 41
2.5
 42
0.625
 43
3.75
 44
1.25
 45
0.0
 46
0.0
 47
0.0
 48
0.0
140
2.5
141
2.5
142
0.0
143
0.03937007874016
144
1.0
145
0.0
146
1.0
147
0.625
 71
     0
 72
     0
 73
     0
 74
     0
 75
     0
 76
     0
 77
     1
 78
     8
170
     0
171
     3
172
     1
173
     0
174
     0
175
     0
176
     0
177
     0
178
     0
270
     2
271
     2
272
     2
273
     2
274
     3
340
11
275
     0
280
     0
281
     0
282
     0
283
     0
284
     8
285
     0
286
     0
287
     3
288
     0
  0
ENDTAB
  0
TABLE
  2
BLOCK_RECORD
  5
1
330
0
100
AcDbSymbolTable
 70
     1
  0
BLOCK_RECORD
  5
1F
330
1
100
AcDbSymbolTableRecord
100
AcDbBlockTableRecord
  2
*MODEL_SPACE
  0
BLOCK_RECORD
  5
1B
330
1
100
AcDbSymbolTableRecord
100
AcDbBlockTableRecord
  2
*PAPER_SPACE
  0
ENDTAB
  0
ENDSEC
  0
SECTION
  2
BLOCKS
  0
BLOCK
  5
20
330
1F
100
AcDbEntity
  8
0
100
AcDbBlockBegin
  2
*MODEL_SPACE
 70
     0
 10
0.0
 20
0.0
 30
0.0
  3
*MODEL_SPACE
  1

  0
ENDBLK
  5
21
330
1F
100
AcDbEntity
  8
0
100
AcDbBlockEnd
  0
BLOCK
  5
1C
330
1B
100
AcDbEntity
 67
     1
  8
0
100
AcDbBlockBegin
  2
*PAPER_SPACE
  1

  0
ENDBLK
  5
1D
330
1B
100
AcDbEntity
 67
     1
  8
0
100
AcDbBlockEnd
  0
ENDSEC
  0
SECTION
  2
ENTITIES
  0
LWPOLYLINE
  5
100
100
AcDbEntity
  8
0
 62
7
100
AcDbPolyline
 90
8
 70
1
 10
1.447917
 20
0.000000
 30
0.0
 10
0.000000
 20
0.000000
 30
0.0
 10
0.000000
 20
1.145833
 30
0.0
 10
0.000000
 20
2.291667
 30
0.0
 10
1.447917
 20
2.291667
 30
0.0
 10
2.895833
 20
2.291667
 30
0.0
 10
2.895833
 20
1.145833
 30
0.0
 10
2.895833
 20
0.000000
 30
0.0
  0
LWPOLYLINE
  5
101
100
AcDbEntity
  8
0
 62
7
100
AcDbPolyline
 90
56
 70
1
 10
1.020833
 20
0.797703
 30
0.0
 10
1.046875
 20
0.803397
 30
0.0
 10
1.066525
 20
0.822679
 30
0.0
 10
1.086174
 20
0.841961
 30
0.0
 10
1.086174
 20
0.887101
 30
0.0
 10
1.086174
 20
0.932240
 30
0.0
 10
1.094583
 20
0.909509
 30
0.0
 10
1.102992
 20
0.886779
 30
0.0
 10
1.124806
 20
0.875104
 30
0.0
 10
1.146620
 20
0.863429
 30
0.0
 10
1.169664
 20
0.871211
 30
0.0
 10
1.192708
 20
0.878993
 30
0.0
 10
1.210938
 20
0.876342
 30
0.0
 10
1.229167
 20
0.873690
 30
0.0
 10
1.229167
 20
0.929319
 30
0.0
 10
1.229167
 20
0.984948
 30
0.0
 10
1.212951
 20
1.008099
 30
0.0
 10
1.196735
 20
1.031250
 30
0.0
 10
1.166928
 20
1.031250
 30
0.0
 10
1.137121
 20
1.031250
 30
0.0
 10
1.120644
 20
1.024927
 30
0.0
 10
1.104167
 20
1.018604
 30
0.0
 10
1.104167
 20
1.004726
 30
0.0
 10
1.104167
 20
0.990847
 30
0.0
 10
1.147317
 20
0.992819
 30
0.0
 10
1.190467
 20
0.994792
 30
0.0
 10
1.195060
 20
0.981771
 30
0.0
 10
1.199653
 20
0.968750
 30
0.0
 10
1.163070
 20
0.968750
 30
0.0
 10
1.126488
 20
0.968750
 30
0.0
 10
1.110119
 20
0.952381
 30
0.0
 10
1.093750
 20
0.936012
 30
0.0
 10
1.093750
 20
0.982511
 30
0.0
 10
1.093750
 20
1.029011
 30
0.0
 10
1.031811
 20
1.029882
 30
0.0
 10
0.969872
 20
1.030754
 30
0.0
 10
0.948478
 20
1.003556
 30
0.0
 10
0.927083
 20
0.976357
 30
0.0
 10
0.927083
 20
0.948328
 30
0.0
 10
0.927083
 20
0.920298
 30
0.0
 10
0.952485
 20
0.896435
 30
0.0
 10
0.977886
 20
0.872571
 30
0.0
 10
1.014985
 20
0.876902
 30
0.0
 10
1.052083
 20
0.881233
 30
0.0
 10
1.052083
 20
0.862268
 30
0.0
 10
1.052083
 20
0.843303
 30
0.0
 10
1.026468
 20
0.831632
 30
0.0
 10
1.000853
 20
0.819961
 30
0.0
 10
0.976989
 20
0.835446
 30
0.0
 10
0.953125
 20
0.850931
 30
0.0
 10
0.940104
 20
0.846472
 30
0.0
 10
0.927083
 20
0.842014
 30
0.0
 10
0.927083
 20
0.831962
 30
0.0
 10
0.927083
 20
0.821911
 30
0.0
 10
0.960938
 20
0.806960
 30
0.0
 10
0.994792
 20
0.792009
 30
0.0
  0
LWPOLYLINE
  5
102
100
AcDbEntity
  8
0
 62
7
100
AcDbPolyline
 90
12
 70
1
 10
1.156498
 20
0.895833
 30
0.0
 10
1.136646
 20
0.895833
 30
0.0
 10
1.129232
 20
0.907830
 30
0.0
 10
1.121817
 20
0.919827
 30
0.0
 10
1.141024
 20
0.933872
 30
0.0
 10
1.160232
 20
0.947917
 30
0.0
 10
1.179074
 20
0.947917
 30
0.0
 10
1.197917
 20
0.947917
 30
0.0
 10
1.197917
 20
0.942024
 30
0.0
 10
1.197917
 20
0.936130
 30
0.0
 10
1.187134
 20
0.915982
 30
0.0
 10
1.176350
 20
0.895833
 30
0.0
  0
LWPOLYLINE
  5
103
100
AcDbEntity
  8
0
 62
7
100
AcDbPolyline
 90
12
 70
1
 10
1.015574
 20
0.908385
 30
0.0
 10
0.984272
 20
0.905311
 30
0.0
 10
0.971303
 20
0.918280
 30
0.0
 10
0.958333
 20
0.931250
 30
0.0
 10
0.958333
 20
0.955432
 30
0.0
 10
0.958333
 20
0.979613
 30
0.0
 10
0.985184
 20
0.991847
 30
0.0
 10
1.012035
 20
1.004081
 30
0.0
 10
1.029455
 20
0.993093
 30
0.0
 10
1.046875
 20
0.982104
 30
0.0
 10
1.046875
 20
0.946781
 30
0.0
 10
1.046875
 20
0.911458
 30
0.0
  0
LWPOLYLINE
  5
104
100
AcDbEntity
  8
0
 62
7
100
AcDbPolyline
 90
19
 70
1
 10
0.751199
 20
0.865406
 30
0.0
 10
0.768024
 20
0.864583
 30
0.0
 10
0.795470
 20
0.886173
 30
0.0
 10
0.822917
 20
0.907762
 30
0.0
 10
0.822917
 20
0.948673
 30
0.0
 10
0.822917
 20
0.989583
 30
0.0
 10
0.802083
 20
1.010417
 30
0.0
 10
0.781250
 20
1.031250
 30
0.0
 10
0.748067
 20
1.031250
 30
0.0
 10
0.714884
 20
1.031250
 30
0.0
 10
0.690776
 20
1.008601
 30
0.0
 10
0.666667
 20
0.985952
 30
0.0
 10
0.666667
 20
0.947715
 30
0.0
 10
0.666667
 20
0.909479
 30
0.0
 10
0.684896
 20
0.893599
 30
0.0
 10
0.703125
 20
0.877719
 30
0.0
 10
0.718750
 20
0.871973
 30
0.0
 10
0.734375
 20
0.866228
 30
0.0
 10
0.751199
 20
0.865406
 30
0.0
  0
LWPOLYLINE
  5
105
100
AcDbEntity
  8
0
 62
7
100
AcDbPolyline
 90
16
 70
1
 10
0.741012
 20
0.895833
 30
0.0
 10
0.730655
 20
0.895833
 30
0.0
 10
0.714286
 20
0.912202
 30
0.0
 10
0.697917
 20
0.928571
 30
0.0
 10
0.697917
 20
0.951786
 30
0.0
 10
0.697917
 20
0.975000
 30
0.0
 10
0.710417
 20
0.987500
 30
0.0
 10
0.722917
 20
1.000000
 30
0.0
 10
0.744792
 20
1.000000
 30
0.0
 10
0.766667
 20
1.000000
 30
0.0
 10
0.779167
 20
0.987500
 30
0.0
 10
0.791667
 20
0.975000
 30
0.0
 10
0.791667
 20
0.946200
 30
0.0
 10
0.791667
 20
0.917400
 30
0.0
 10
0.771518
 20
0.906616
 30
0.0
 10
0.751370
 20
0.895833
 30
0.0
  0
LWPOLYLINE
  5
106
100
AcDbEntity
  8
0
 62
7
100
AcDbPolyline
 90
35
 70
1
 10
1.518914
 20
0.865244
 30
0.0
 10
1.532620
 20
0.864583
 30
0.0
 10
1.552768
 20
0.875366
 30
0.0
 10
1.572917
 20
0.886150
 30
0.0
 10
1.572917
 20
0.902522
 30
0.0
 10
1.572917
 20
0.918896
 30
0.0
 10
1.554688
 20
0.911391
 30
0.0
 10
1.536458
 20
0.903886
 30
0.0
 10
1.519782
 20
0.899051
 30
0.0
 10
1.503106
 20
0.894216
 30
0.0
 10
1.485928
 20
0.911393
 30
0.0
 10
1.468750
 20
0.928571
 30
0.0
 10
1.468750
 20
0.947917
 30
0.0
 10
1.468750
 20
0.967262
 30
0.0
 10
1.485119
 20
0.983631
 30
0.0
 10
1.501488
 20
1.000000
 30
0.0
 10
1.519494
 20
1.000000
 30
0.0
 10
1.537500
 20
1.000000
 30
0.0
 10
1.549659
 20
0.987841
 30
0.0
 10
1.561817
 20
0.975683
 30
0.0
 10
1.568885
 20
0.994101
 30
0.0
 10
1.575952
 20
1.012519
 30
0.0
 10
1.561414
 20
1.021725
 30
0.0
 10
1.546875
 20
1.030931
 30
0.0
 10
1.513777
 20
1.031090
 30
0.0
 10
1.480679
 20
1.031250
 30
0.0
 10
1.459089
 20
1.003803
 30
0.0
 10
1.437500
 20
0.976357
 30
0.0
 10
1.437500
 20
0.951035
 30
0.0
 10
1.437500
 20
0.925713
 30
0.0
 10
1.448598
 20
0.904977
 30
0.0
 10
1.459695
 20
0.884241
 30
0.0
 10
1.482452
 20
0.875072
 30
0.0
 10
1.505208
 20
0.865904
 30
0.0
 10
1.518914
 20
0.865243
 30
0.0
  0
LWPOLYLINE
  5
107
100
AcDbEntity
  8
0
 62
7
100
AcDbPolyline
 90
41
 70
1
 10
1.646120
 20
0.865285
 30
0.0
 10
1.662031
 20
0.864580
 30
0.0
 10
1.685182
 20
0.880796
 30
0.0
 10
1.708333
 20
0.897015
 30
0.0
 10
1.708333
 20
0.916667
 30
0.0
 10
1.708333
 20
0.936319
 30
0.0
 10
1.685182
 20
0.952534
 30
0.0
 10
1.662031
 20
0.968750
 30
0.0
 10
1.643516
 20
0.968750
 30
0.0
 10
1.625000
 20
0.968750
 30
0.0
 10
1.625000
 20
0.984375
 30
0.0
 10
1.625000
 20
1.000000
 30
0.0
 10
1.640010
 20
1.000000
 30
0.0
 10
1.655021
 20
1.000000
 30
0.0
 10
1.661458
 20
0.989583
 30
0.0
 10
1.667896
 20
0.979167
 30
0.0
 10
1.678025
 20
0.979167
 30
0.0
 10
1.688154
 20
0.979167
 30
0.0
 10
1.694553
 20
0.995843
 30
0.0
 10
1.700952
 20
1.012519
 30
0.0
 10
1.686414
 20
1.021725
 30
0.0
 10
1.671875
 20
1.030931
 30
0.0
 10
1.644844
 20
1.031090
 30
0.0
 10
1.617812
 20
1.031250
 30
0.0
 10
1.599309
 20
1.010804
 30
0.0
 10
1.580807
 20
0.990359
 30
0.0
 10
1.587132
 20
0.973876
 30
0.0
 10
1.593457
 20
0.957392
 30
0.0
 10
1.630783
 20
0.941797
 30
0.0
 10
1.668109
 20
0.926201
 30
0.0
 10
1.663662
 20
0.913621
 30
0.0
 10
1.659216
 20
0.901041
 30
0.0
 10
1.644712
 20
0.902979
 30
0.0
 10
1.630208
 20
0.904916
 30
0.0
 10
1.606771
 20
0.912006
 30
0.0
 10
1.583333
 20
0.919096
 30
0.0
 10
1.583333
 20
0.903848
 30
0.0
 10
1.583333
 20
0.888600
 30
0.0
 10
1.606771
 20
0.877296
 30
0.0
 10
1.630208
 20
0.865993
 30
0.0
 10
1.646120
 20
0.865288
 30
0.0
  0
LWPOLYLINE
  5
108
100
AcDbEntity
  8
0
 62
7
100
AcDbPolyline
 90
28
 70
1
 10
1.876703
 20
0.864580
 30
0.0
 10
1.894604
 20
0.864580
 30
0.0
 10
1.900437
 20
0.874019
 30
0.0
 10
1.906271
 20
0.883458
 30
0.0
 10
1.927094
 20
0.878012
 30
0.0
 10
1.947917
 20
0.872567
 30
0.0
 10
1.947917
 20
0.935538
 30
0.0
 10
1.947917
 20
0.998509
 30
0.0
 10
1.931548
 20
1.014878
 30
0.0
 10
1.915179
 20
1.031247
 30
0.0
 10
1.885525
 20
1.031247
 30
0.0
 10
1.855871
 20
1.031247
 30
0.0
 10
1.839394
 20
1.024924
 30
0.0
 10
1.822917
 20
1.018601
 30
0.0
 10
1.822917
 20
1.003902
 30
0.0
 10
1.822917
 20
0.989202
 30
0.0
 10
1.866065
 20
0.991995
 30
0.0
 10
1.909214
 20
0.994788
 30
0.0
 10
1.913808
 20
0.981768
 30
0.0
 10
1.918403
 20
0.968747
 30
0.0
 10
1.881820
 20
0.968747
 30
0.0
 10
1.845238
 20
0.968747
 30
0.0
 10
1.828869
 20
0.952378
 30
0.0
 10
1.812500
 20
0.936009
 30
0.0
 10
1.812500
 20
0.916510
 30
0.0
 10
1.812500
 20
0.897011
 30
0.0
 10
1.835651
 20
0.880796
 30
0.0
 10
1.858802
 20
0.864580
 30
0.0
  0
LWPOLYLINE
  5
109
100
AcDbEntity
  8
0
 62
7
100
AcDbPolyline
 90
12
 70
1
 10
1.879400
 20
0.895830
 30
0.0
 10
1.867134
 20
0.895830
 30
0.0
 10
1.854770
 20
0.910729
 30
0.0
 10
1.842405
 20
0.925627
 30
0.0
 10
1.863226
 20
0.936770
 30
0.0
 10
1.884047
 20
0.947913
 30
0.0
 10
1.900357
 20
0.947913
 30
0.0
 10
1.916667
 20
0.947913
 30
0.0
 10
1.916667
 20
0.934372
 30
0.0
 10
1.916667
 20
0.920830
 30
0.0
 10
1.904167
 20
0.908330
 30
0.0
 10
1.891667
 20
0.895830
 30
0.0
  0
LWPOLYLINE
  5
10a
100
AcDbEntity
  8
0
 62
7
100
AcDbPolyline
 90
14
 70
1
 10
0.859375
 20
0.875000
 30
0.0
 10
0.875000
 20
0.875000
 30
0.0
 10
0.875000
 20
0.932093
 30
0.0
 10
0.875000
 20
0.989186
 30
0.0
 10
0.901042
 20
0.995723
 30
0.0
 10
0.927083
 20
1.002259
 30
0.0
 10
0.927083
 20
1.016374
 30
0.0
 10
0.927083
 20
1.030490
 30
0.0
 10
0.878917
 20
1.029523
 30
0.0
 10
0.830750
 20
1.028556
 30
0.0
 10
0.837160
 20
0.975216
 30
0.0
 10
0.843569
 20
0.921875
 30
0.0
 10
0.843660
 20
0.898438
 30
0.0
 10
0.843750
 20
0.875000
 30
0.0
  0
LWPOLYLINE
  5
10b
100
AcDbEntity
  8
0
 62
7
100
AcDbPolyline
 90
20
 70
1
 10
1.255208
 20
0.875000
 30
0.0
 10
1.270833
 20
0.875000
 30
0.0
 10
1.270833
 20
0.919884
 30
0.0
 10
1.270833
 20
0.964768
 30
0.0
 10
1.284543
 20
0.983517
 30
0.0
 10
1.298252
 20
1.002265
 30
0.0
 10
1.318397
 20
0.998427
 30
0.0
 10
1.338542
 20
0.994589
 30
0.0
 10
1.341666
 20
0.934795
 30
0.0
 10
1.344790
 20
0.875000
 30
0.0
 10
1.359895
 20
0.875000
 30
0.0
 10
1.375000
 20
0.875000
 30
0.0
 10
1.375000
 20
0.936756
 30
0.0
 10
1.375000
 20
0.998512
 30
0.0
 10
1.358831
 20
1.014681
 30
0.0
 10
1.342661
 20
1.030851
 30
0.0
 10
1.291122
 20
1.029689
 30
0.0
 10
1.239583
 20
1.028528
 30
0.0
 10
1.239583
 20
0.951764
 30
0.0
 10
1.239583
 20
0.875000
 30
0.0
  0
LWPOLYLINE
  5
10c
100
AcDbEntity
  8
0
 62
7
100
AcDbPolyline
 90
8
 70
1
 10
1.411458
 20
0.875000
 30
0.0
 10
1.427083
 20
0.875000
 30
0.0
 10
1.427083
 20
0.953125
 30
0.0
 10
1.427083
 20
1.031250
 30
0.0
 10
1.411458
 20
1.031250
 30
0.0
 10
1.395833
 20
1.031250
 30
0.0
 10
1.395833
 20
0.953125
 30
0.0
 10
1.395833
 20
0.875000
 30
0.0
  0
LWPOLYLINE
  5
10d
100
AcDbEntity
  8
0
 62
7
100
AcDbPolyline
 90
30
 70
1
 10
1.755208
 20
0.875000
 30
0.0
 10
1.770833
 20
0.875000
 30
0.0
 10
1.770833
 20
0.937500
 30
0.0
 10
1.770833
 20
1.000000
 30
0.0
 10
1.786458
 20
1.000000
 30
0.0
 10
1.802083
 20
1.000000
 30
0.0
 10
1.802083
 20
1.015625
 30
0.0
 10
1.802083
 20
1.031250
 30
0.0
 10
1.786458
 20
1.031250
 30
0.0
 10
1.770833
 20
1.031250
 30
0.0
 10
1.770833
 20
1.062500
 30
0.0
 10
1.770833
 20
1.093750
 30
0.0
 10
1.791667
 20
1.093750
 30
0.0
 10
1.812500
 20
1.093750
 30
0.0
 10
1.812500
 20
1.109375
 30
0.0
 10
1.812500
 20
1.125000
 30
0.0
 10
1.788542
 20
1.125000
 30
0.0
 10
1.764583
 20
1.125000
 30
0.0
 10
1.752083
 20
1.112500
 30
0.0
 10
1.739583
 20
1.100000
 30
0.0
 10
1.739583
 20
1.065625
 30
0.0
 10
1.739583
 20
1.031250
 30
0.0
 10
1.723958
 20
1.031250
 30
0.0
 10
1.708333
 20
1.031250
 30
0.0
 10
1.708333
 20
1.015625
 30
0.0
 10
1.708333
 20
1.000000
 30
0.0
 10
1.723958
 20
1.000000
 30
0.0
 10
1.739583
 20
1.000000
 30
0.0
 10
1.739583
 20
0.937500
 30
0.0
 10
1.739583
 20
0.875000
 30
0.0
  0
LWPOLYLINE
  5
10e
100
AcDbEntity
  8
0
 62
7
100
AcDbPolyline
 90
13
 70
1
 10
1.973414
 20
0.875000
 30
0.0
 10
1.988495
 20
0.875000
 30
0.0
 10
1.991643
 20
0.929688
 30
0.0
 10
1.994792
 20
0.984375
 30
0.0
 10
2.018229
 20
0.994658
 30
0.0
 10
2.041667
 20
1.004940
 30
0.0
 10
2.041667
 20
1.017442
 30
0.0
 10
2.041667
 20
1.029944
 30
0.0
 10
2.000000
 20
1.029369
 30
0.0
 10
1.958333
 20
1.028794
 30
0.0
 10
1.958333
 20
0.951897
 30
0.0
 10
1.958333
 20
0.875000
 30
0.0
 10
1.973414
 20
0.875000
 30
0.0
  0
LWPOLYLINE
  5
10f
100
AcDbEntity
  8
0
 62
7
100
AcDbPolyline
 90
39
 70
1
 10
2.067708
 20
0.875000
 30
0.0
 10
2.083333
 20
0.875000
 30
0.0
 10
2.083333
 20
0.910780
 30
0.0
 10
2.083333
 20
0.946560
 30
0.0
 10
2.093492
 20
0.973280
 30
0.0
 10
2.103651
 20
1.000000
 30
0.0
 10
2.123527
 20
1.000000
 30
0.0
 10
2.143404
 20
1.000000
 30
0.0
 10
2.149684
 20
0.976562
 30
0.0
 10
2.155966
 20
0.953125
 30
0.0
 10
2.156108
 20
0.914062
 30
0.0
 10
2.156251
 20
0.875000
 30
0.0
 10
2.171221
 20
0.875000
 30
0.0
 10
2.186191
 20
0.875000
 30
0.0
 10
2.180796
 20
0.908854
 30
0.0
 10
2.175400
 20
0.942708
 30
0.0
 10
2.186676
 20
0.972076
 30
0.0
 10
2.197951
 20
1.001445
 30
0.0
 10
2.221372
 20
0.998118
 30
0.0
 10
2.244793
 20
0.994792
 30
0.0
 10
2.247917
 20
0.934896
 30
0.0
 10
2.251041
 20
0.875000
 30
0.0
 10
2.267359
 20
0.875000
 30
0.0
 10
2.283678
 20
0.875000
 30
0.0
 10
2.279321
 20
0.943421
 30
0.0
 10
2.274964
 20
1.011843
 30
0.0
 10
2.259879
 20
1.021387
 30
0.0
 10
2.244793
 20
1.030931
 30
0.0
 10
2.216762
 20
1.031090
 30
0.0
 10
2.188730
 20
1.031250
 30
0.0
 10
2.181980
 20
1.020327
 30
0.0
 10
2.175229
 20
1.009405
 30
0.0
 10
2.162480
 20
1.019986
 30
0.0
 10
2.149730
 20
1.030567
 30
0.0
 10
2.100907
 20
1.029587
 30
0.0
 10
2.052084
 20
1.028607
 30
0.0
 10
2.052084
 20
0.951803
 30
0.0
 10
2.052084
 20
0.874999
 30
0.0
 10
2.067709
 20
0.874999
 30
0.0
  0
LWPOLYLINE
  5
110
100
AcDbEntity
  8
0
 62
7
100
AcDbPolyline
 90
10
 70
1
 10
1.412073
 20
1.062500
 30
0.0
 10
1.427083
 20
1.062500
 30
0.0
 10
1.427083
 20
1.077510
 30
0.0
 10
1.427083
 20
1.092521
 30
0.0
 10
1.415502
 20
1.099678
 30
0.0
 10
1.403921
 20
1.106836
 30
0.0
 10
1.395356
 20
1.092978
 30
0.0
 10
1.386791
 20
1.079120
 30
0.0
 10
1.391927
 20
1.070810
 30
0.0
 10
1.397063
 20
1.062500
 30
0.0
  0
LWPOLYLINE
  5
111
100
AcDbEntity
  8
0
 62
7
100
AcDbPolyline
 90
35
 70
1
 10
1.548325
 20
1.084038
 30
0.0
 10
1.581025
 20
1.083333
 30
0.0
 10
1.605617
 20
1.103239
 30
0.0
 10
1.630208
 20
1.123146
 30
0.0
 10
1.633905
 20
1.219323
 30
0.0
 10
1.637602
 20
1.315501
 30
0.0
 10
1.613614
 20
1.309228
 30
0.0
 10
1.589626
 20
1.302955
 30
0.0
 10
1.576198
 20
1.314099
 30
0.0
 10
1.562771
 20
1.325243
 30
0.0
 10
1.536882
 20
1.318745
 30
0.0
 10
1.510993
 20
1.312248
 30
0.0
 10
1.489872
 20
1.289576
 30
0.0
 10
1.468750
 20
1.266905
 30
0.0
 10
1.468750
 20
1.237145
 30
0.0
 10
1.468750
 20
1.207386
 30
0.0
 10
1.494318
 20
1.181818
 30
0.0
 10
1.519886
 20
1.156250
 30
0.0
 10
1.541878
 20
1.156250
 30
0.0
 10
1.563870
 20
1.156250
 30
0.0
 10
1.584018
 20
1.167033
 30
0.0
 10
1.604167
 20
1.177816
 30
0.0
 10
1.604167
 20
1.169351
 30
0.0
 10
1.604167
 20
1.160885
 30
0.0
 10
1.587255
 20
1.136741
 30
0.0
 10
1.570344
 20
1.112596
 30
0.0
 10
1.542984
 20
1.118062
 30
0.0
 10
1.515625
 20
1.123528
 30
0.0
 10
1.495913
 20
1.126868
 30
0.0
 10
1.476201
 20
1.130208
 30
0.0
 10
1.472182
 20
1.118910
 30
0.0
 10
1.468163
 20
1.107612
 30
0.0
 10
1.491894
 20
1.096178
 30
0.0
 10
1.515625
 20
1.084743
 30
0.0
 10
1.548325
 20
1.084038
 30
0.0
  0
LWPOLYLINE
  5
112
100
AcDbEntity
  8
0
 62
7
100
AcDbPolyline
 90
15
 70
1
 10
1.553073
 20
1.187817
 30
0.0
 10
1.536458
 20
1.188133
 30
0.0
 10
1.518229
 20
1.198751
 30
0.0
 10
1.500000
 20
1.209368
 30
0.0
 10
1.500000
 20
1.234652
 30
0.0
 10
1.500000
 20
1.259936
 30
0.0
 10
1.525343
 20
1.276542
 30
0.0
 10
1.550686
 20
1.293147
 30
0.0
 10
1.571513
 20
1.282001
 30
0.0
 10
1.592339
 20
1.270855
 30
0.0
 10
1.599192
 20
1.249264
 30
0.0
 10
1.606044
 20
1.227674
 30
0.0
 10
1.587866
 20
1.207587
 30
0.0
 10
1.569688
 20
1.187500
 30
0.0
 10
1.553073
 20
1.187817
 30
0.0
  0
LWPOLYLINE
  5
113
100
AcDbEntity
  8
0
 62
7
100
AcDbPolyline
 90
57
 70
1
 10
1.981015
 20
1.182447
 30
0.0
 10
1.988071
 20
1.252165
 30
0.0
 10
2.025392
 20
1.308374
 30
0.0
 10
2.062713
 20
1.364583
 30
0.0
 10
2.072584
 20
1.364583
 30
0.0
 10
2.082455
 20
1.364583
 30
0.0
 10
2.108337
 20
1.408854
 30
0.0
 10
2.134219
 20
1.453125
 30
0.0
 10
2.144823
 20
1.519271
 30
0.0
 10
2.155428
 20
1.585416
 30
0.0
 10
2.167531
 20
1.600000
 30
0.0
 10
2.179634
 20
1.614583
 30
0.0
 10
2.165338
 20
1.614481
 30
0.0
 10
2.151042
 20
1.614379
 30
0.0
 10
2.098958
 20
1.589890
 30
0.0
 10
2.046875
 20
1.565400
 30
0.0
 10
2.012252
 20
1.526925
 30
0.0
 10
1.977630
 20
1.488449
 30
0.0
 10
1.960802
 20
1.449953
 30
0.0
 10
1.943974
 20
1.411458
 30
0.0
 10
1.943341
 20
1.304327
 30
0.0
 10
1.942708
 20
1.197196
 30
0.0
 10
1.934620
 20
1.236120
 30
0.0
 10
1.926533
 20
1.275043
 30
0.0
 10
1.900109
 20
1.348459
 30
0.0
 10
1.873684
 20
1.421874
 30
0.0
 10
1.841838
 20
1.471615
 30
0.0
 10
1.809992
 20
1.521355
 30
0.0
 10
1.769153
 20
1.556312
 30
0.0
 10
1.728314
 20
1.591268
 30
0.0
 10
1.667775
 20
1.613342
 30
0.0
 10
1.607236
 20
1.635417
 30
0.0
 10
1.590076
 20
1.635417
 30
0.0
 10
1.572917
 20
1.635417
 30
0.0
 10
1.572917
 20
1.625366
 30
0.0
 10
1.572917
 20
1.615316
 30
0.0
 10
1.593642
 20
1.604224
 30
0.0
 10
1.614368
 20
1.593132
 30
0.0
 10
1.630371
 20
1.562185
 30
0.0
 10
1.646375
 20
1.531237
 30
0.0
 10
1.656571
 20
1.477473
 30
0.0
 10
1.666767
 20
1.423710
 30
0.0
 10
1.692920
 20
1.389421
 30
0.0
 10
1.719073
 20
1.355133
 30
0.0
 10
1.792852
 20
1.316363
 30
0.0
 10
1.866630
 20
1.277594
 30
0.0
 10
1.892099
 20
1.237249
 30
0.0
 10
1.917567
 20
1.196904
 30
0.0
 10
1.928995
 20
1.168764
 30
0.0
 10
1.940423
 20
1.140625
 30
0.0
 10
1.948340
 20
1.166667
 30
0.0
 10
1.956257
 20
1.192708
 30
0.0
 10
1.957295
 20
1.160590
 30
0.0
 10
1.958334
 20
1.128472
 30
0.0
 10
1.966146
 20
1.120601
 30
0.0
 10
1.973959
 20
1.112729
 30
0.0
 10
1.981015
 20
1.182447
 30
0.0
  0
LWPOLYLINE
  5
114
100
AcDbEntity
  8
0
 62
7
100
AcDbPolyline
 90
24
 70
1
 10
0.692367
 20
1.156250
 30
0.0
 10
0.708333
 20
1.156250
 30
0.0
 10
0.708333
 20
1.209097
 30
0.0
 10
0.708333
 20
1.261944
 30
0.0
 10
0.726423
 20
1.258460
 30
0.0
 10
0.744513
 20
1.254977
 30
0.0
 10
0.769309
 20
1.210027
 30
0.0
 10
0.794104
 20
1.165077
 30
0.0
 10
0.808960
 20
1.159377
 30
0.0
 10
0.823815
 20
1.153676
 30
0.0
 10
0.828726
 20
1.158587
 30
0.0
 10
0.833637
 20
1.163499
 30
0.0
 10
0.806152
 20
1.212676
 30
0.0
 10
0.778666
 20
1.261853
 30
0.0
 10
0.800791
 20
1.277351
 30
0.0
 10
0.822917
 20
1.292848
 30
0.0
 10
0.822917
 20
1.328349
 30
0.0
 10
0.822917
 20
1.363850
 30
0.0
 10
0.800857
 20
1.375656
 30
0.0
 10
0.778798
 20
1.387462
 30
0.0
 10
0.730545
 20
1.389044
 30
0.0
 10
0.682292
 20
1.390625
 30
0.0
 10
0.679346
 20
1.273438
 30
0.0
 10
0.676401
 20
1.156250
 30
0.0
  0
LWPOLYLINE
  5
115
100
AcDbEntity
  8
0
 62
7
100
AcDbPolyline
 90
10
 70
1
 10
0.736979
 20
1.291826
 30
0.0
 10
0.708333
 20
1.291667
 30
0.0
 10
0.708333
 20
1.323545
 30
0.0
 10
0.708333
 20
1.355424
 30
0.0
 10
0.747309
 20
1.352191
 30
0.0
 10
0.786285
 20
1.348958
 30
0.0
 10
0.790001
 20
1.329373
 30
0.0
 10
0.793717
 20
1.309788
 30
0.0
 10
0.779671
 20
1.300887
 30
0.0
 10
0.765625
 20
1.291986
 30
0.0
  0
LWPOLYLINE
  5
116
100
AcDbEntity
  8
0
 62
7
100
AcDbPolyline
 90
28
 70
1
 10
0.918521
 20
1.157840
 30
0.0
 10
0.968750
 20
1.158972
 30
0.0
 10
0.968750
 20
1.220111
 30
0.0
 10
0.968750
 20
1.281250
 30
0.0
 10
0.947917
 20
1.302083
 30
0.0
 10
0.927083
 20
1.322917
 30
0.0
 10
0.911948
 20
1.322917
 30
0.0
 10
0.896814
 20
1.322917
 30
0.0
 10
0.870282
 20
1.310828
 30
0.0
 10
0.843750
 20
1.298739
 30
0.0
 10
0.843750
 20
1.290609
 30
0.0
 10
0.843750
 20
1.282480
 30
0.0
 10
0.853951
 20
1.276175
 30
0.0
 10
0.864153
 20
1.269870
 30
0.0
 10
0.884447
 20
1.280731
 30
0.0
 10
0.904741
 20
1.291592
 30
0.0
 10
0.921120
 20
1.285307
 30
0.0
 10
0.937500
 20
1.279021
 30
0.0
 10
0.937500
 20
1.269719
 30
0.0
 10
0.937500
 20
1.260417
 30
0.0
 10
0.913776
 20
1.260417
 30
0.0
 10
0.890052
 20
1.260417
 30
0.0
 10
0.866901
 20
1.244201
 30
0.0
 10
0.843750
 20
1.227985
 30
0.0
 10
0.843750
 20
1.204618
 30
0.0
 10
0.843750
 20
1.181250
 30
0.0
 10
0.856021
 20
1.168979
 30
0.0
 10
0.868291
 20
1.156709
 30
0.0
  0
LWPOLYLINE
  5
117
100
AcDbEntity
  8
0
 62
7
100
AcDbPolyline
 90
10
 70
1
 10
0.901369
 20
1.187500
 30
0.0
 10
0.875000
 20
1.187500
 30
0.0
 10
0.875000
 20
1.202927
 30
0.0
 10
0.875000
 20
1.218353
 30
0.0
 10
0.901527
 20
1.225011
 30
0.0
 10
0.928054
 20
1.231669
 30
0.0
 10
0.934064
 20
1.225659
 30
0.0
 10
0.940074
 20
1.219649
 30
0.0
 10
0.933905
 20
1.203574
 30
0.0
 10
0.927737
 20
1.187500
 30
0.0
  0
LWPOLYLINE
  5
118
100
AcDbEntity
  8
0
 62
7
100
AcDbPolyline
 90
34
 70
1
 10
1.000000
 20
1.156250
 30
0.0
 10
1.020833
 20
1.156250
 30
0.0
 10
1.020833
 20
1.223631
 30
0.0
 10
1.020833
 20
1.291013
 30
0.0
 10
1.036458
 20
1.285017
 30
0.0
 10
1.052083
 20
1.279021
 30
0.0
 10
1.052083
 20
1.229328
 30
0.0
 10
1.052083
 20
1.179634
 30
0.0
 10
1.067135
 20
1.167142
 30
0.0
 10
1.082187
 20
1.154651
 30
0.0
 10
1.105382
 20
1.158055
 30
0.0
 10
1.128576
 20
1.161458
 30
0.0
 10
1.132865
 20
1.174479
 30
0.0
 10
1.137153
 20
1.187500
 30
0.0
 10
1.116500
 20
1.187500
 30
0.0
 10
1.095848
 20
1.187500
 30
0.0
 10
1.092120
 20
1.234375
 30
0.0
 10
1.088392
 20
1.281250
 30
0.0
 10
1.106696
 20
1.281250
 30
0.0
 10
1.125000
 20
1.281250
 30
0.0
 10
1.125000
 20
1.296875
 30
0.0
 10
1.125000
 20
1.312500
 30
0.0
 10
1.105142
 20
1.312500
 30
0.0
 10
1.085284
 20
1.312500
 30
0.0
 10
1.090732
 20
1.333333
 30
0.0
 10
1.096180
 20
1.354167
 30
0.0
 10
1.074132
 20
1.354167
 30
0.0
 10
1.052083
 20
1.354167
 30
0.0
 10
1.052083
 20
1.333333
 30
0.0
 10
1.052083
 20
1.312500
 30
0.0
 10
1.015625
 20
1.312500
 30
0.0
 10
0.979167
 20
1.312500
 30
0.0
 10
0.979167
 20
1.234375
 30
0.0
 10
0.979167
 20
1.156250
 30
0.0
  0
LWPOLYLINE
  5
119
100
AcDbEntity
  8
0
 62
7
100
AcDbPolyline
 90
18
 70
1
 10
1.222674
 20
1.156250
 30
0.0
 10
1.253866
 20
1.156250
 30
0.0
 10
1.277974
 20
1.178899
 30
0.0
 10
1.302083
 20
1.201548
 30
0.0
 10
1.302083
 20
1.236191
 30
0.0
 10
1.302083
 20
1.270833
 30
0.0
 10
1.281515
 20
1.291402
 30
0.0
 10
1.260947
 20
1.311970
 30
0.0
 10
1.234564
 20
1.318592
 30
0.0
 10
1.208182
 20
1.325213
 30
0.0
 10
1.181751
 20
1.307895
 30
0.0
 10
1.155320
 20
1.290577
 30
0.0
 10
1.145626
 20
1.265080
 30
0.0
 10
1.135932
 20
1.239583
 30
0.0
 10
1.146560
 20
1.210938
 30
0.0
 10
1.157188
 20
1.182292
 30
0.0
 10
1.174335
 20
1.169271
 30
0.0
 10
1.191482
 20
1.156250
 30
0.0
  0
LWPOLYLINE
  5
11a
100
AcDbEntity
  8
0
 62
7
100
AcDbPolyline
 90
14
 70
1
 10
1.216331
 20
1.187500
 30
0.0
 10
1.186829
 20
1.187500
 30
0.0
 10
1.178302
 20
1.210549
 30
0.0
 10
1.169776
 20
1.233598
 30
0.0
 10
1.174731
 20
1.252546
 30
0.0
 10
1.179686
 20
1.271493
 30
0.0
 10
1.199916
 20
1.282320
 30
0.0
 10
1.220147
 20
1.293147
 30
0.0
 10
1.245490
 20
1.276542
 30
0.0
 10
1.270833
 20
1.259936
 30
0.0
 10
1.270833
 20
1.236218
 30
0.0
 10
1.270833
 20
1.212500
 30
0.0
 10
1.258333
 20
1.200000
 30
0.0
 10
1.245833
 20
1.187500
 30
0.0
  0
LWPOLYLINE
  5
11b
100
AcDbEntity
  8
0
 62
7
100
AcDbPolyline
 90
22
 70
1
 10
1.338542
 20
1.156250
 30
0.0
 10
1.354167
 20
1.156250
 30
0.0
 10
1.354167
 20
1.213175
 30
0.0
 10
1.354167
 20
1.270100
 30
0.0
 10
1.376779
 20
1.282202
 30
0.0
 10
1.399392
 20
1.294304
 30
0.0
 10
1.413238
 20
1.275370
 30
0.0
 10
1.427083
 20
1.256435
 30
0.0
 10
1.427083
 20
1.206342
 30
0.0
 10
1.427083
 20
1.156250
 30
0.0
 10
1.442708
 20
1.156250
 30
0.0
 10
1.458333
 20
1.156250
 30
0.0
 10
1.458333
 20
1.212961
 30
0.0
 10
1.458333
 20
1.269672
 30
0.0
 10
1.434077
 20
1.297871
 30
0.0
 10
1.409820
 20
1.326071
 30
0.0
 10
1.379389
 20
1.317589
 30
0.0
 10
1.348958
 20
1.309106
 30
0.0
 10
1.335938
 20
1.311260
 30
0.0
 10
1.322917
 20
1.313413
 30
0.0
 10
1.322917
 20
1.234832
 30
0.0
 10
1.322917
 20
1.156250
 30
0.0
  0
LWPOLYLINE
  5
11c
100
AcDbEntity
  8
0
 62
7
100
AcDbPolyline
 90
10
 70
1
 10
1.004557
 20
1.347005
 30
0.0
 10
1.015625
 20
1.350694
 30
0.0
 10
1.015625
 20
1.365309
 30
0.0
 10
1.015625
 20
1.379923
 30
0.0
 10
0.997396
 20
1.383434
 30
0.0
 10
0.979167
 20
1.386944
 30
0.0
 10
0.979167
 20
1.372292
 30
0.0
 10
0.979167
 20
1.357639
 30
0.0
 10
0.986328
 20
1.350477
 30
0.0
 10
0.993490
 20
1.343316
 30
0.0
  0
ENDSEC
  0
SECTION
  2
OBJECTS
  0
DICTIONARY
  5
C
330
0
100
AcDbDictionary
  3
ACAD_GROUP
350
D
  3
ACAD_MLINESTYLE
350
17
  0
DICTIONARY
  5
D
330
C
100
AcDbDictionary
  0
DICTIONARY
  5
1A
330
C
100
AcDbDictionary
  0
DICTIONARY
  5
17
330
C
100
AcDbDictionary
  3
STANDARD
350
18
  0
DICTIONARY
  5
19
330
C
100
AcDbDictionary
  0
ENDSEC
  0
EOF
